TITLE ""
FILE "P1Q_t_1139-1148.mp3" MP3
  TRACK 01 AUDIO
    TITLE "P1Q_t_1139-1148_01"
    INDEX 01 00:00:00
  TRACK 02 AUDIO
    TITLE "P1Q_t_1139-1148_02"
    INDEX 01 00:01:43
  TRACK 03 AUDIO
    TITLE "P1Q_t_1139-1148_03"
    INDEX 01 00:01:67
  TRACK 04 AUDIO
    TITLE "P1Q_t_1139-1148_04"
    INDEX 01 00:05:64
  TRACK 05 AUDIO
    TITLE "P1Q_t_1139-1148_05"
    INDEX 01 00:06:09
  TRACK 06 AUDIO
    TITLE "P1Q_t_1139-1148_06"
    INDEX 01 00:10:42
  TRACK 07 AUDIO
    TITLE "P1Q_t_1139-1148_07"
    INDEX 01 00:11:16
  TRACK 08 AUDIO
    TITLE "P1Q_t_1139-1148_08"
    INDEX 01 00:12:43
  TRACK 09 AUDIO
    TITLE "P1Q_t_1139-1148_09"
    INDEX 01 00:12:64
  TRACK 10 AUDIO
    TITLE "P1Q_t_1139-1148_10"
    INDEX 01 00:15:12
  TRACK 11 AUDIO
    TITLE "P1Q_t_1139-1148_11"
    INDEX 01 00:15:31
  TRACK 12 AUDIO
    TITLE "P1Q_t_1139-1148_12"
    INDEX 01 00:19:63
  TRACK 13 AUDIO
    TITLE "P1Q_t_1139-1148_13"
    INDEX 01 00:20:33
  TRACK 14 AUDIO
    TITLE "P1Q_t_1139-1148_14"
    INDEX 01 00:21:36
  TRACK 15 AUDIO
    TITLE "P1Q_t_1139-1148_15"
    INDEX 01 00:21:58
  TRACK 16 AUDIO
    TITLE "P1Q_t_1139-1148_16"
    INDEX 01 00:25:61
  TRACK 17 AUDIO
    TITLE "P1Q_t_1139-1148_17"
    INDEX 01 00:26:08
  TRACK 18 AUDIO
    TITLE "P1Q_t_1139-1148_18"
    INDEX 01 00:31:28
  TRACK 19 AUDIO
    TITLE "P1Q_t_1139-1148_19"
    INDEX 01 00:32:01
  TRACK 20 AUDIO
    TITLE "P1Q_t_1139-1148_20"
    INDEX 01 00:33:12
  TRACK 21 AUDIO
    TITLE "P1Q_t_1139-1148_21"
    INDEX 01 00:33:35
  TRACK 22 AUDIO
    TITLE "P1Q_t_1139-1148_22"
    INDEX 01 00:36:37
  TRACK 23 AUDIO
    TITLE "P1Q_t_1139-1148_23"
    INDEX 01 00:36:57
  TRACK 24 AUDIO
    TITLE "P1Q_t_1139-1148_24"
    INDEX 01 00:40:35
  TRACK 25 AUDIO
    TITLE "P1Q_t_1139-1148_25"
    INDEX 01 00:41:07
  TRACK 26 AUDIO
    TITLE "P1Q_t_1139-1148_26"
    INDEX 01 00:42:20
  TRACK 27 AUDIO
    TITLE "P1Q_t_1139-1148_27"
    INDEX 01 00:42:42
  TRACK 28 AUDIO
    TITLE "P1Q_t_1139-1148_28"
    INDEX 01 00:47:61
  TRACK 29 AUDIO
    TITLE "P1Q_t_1139-1148_29"
    INDEX 01 00:48:05
  TRACK 30 AUDIO
    TITLE "P1Q_t_1139-1148_30"
    INDEX 01 00:52:56
  TRACK 31 AUDIO
    TITLE "P1Q_t_1139-1148_31"
    INDEX 01 00:53:28
  TRACK 32 AUDIO
    TITLE "P1Q_t_1139-1148_32"
    INDEX 01 00:54:49
  TRACK 33 AUDIO
    TITLE "P1Q_t_1139-1148_33"
    INDEX 01 00:54:73
  TRACK 34 AUDIO
    TITLE "P1Q_t_1139-1148_34"
    INDEX 01 00:57:40
  TRACK 35 AUDIO
    TITLE "P1Q_t_1139-1148_35"
    INDEX 01 00:57:59
  TRACK 36 AUDIO
    TITLE "P1Q_t_1139-1148_36"
    INDEX 01 01:02:09
  TRACK 37 AUDIO
    TITLE "P1Q_t_1139-1148_37"
    INDEX 01 01:02:58
  TRACK 38 AUDIO
    TITLE "P1Q_t_1139-1148_38"
    INDEX 01 01:04:02
  TRACK 39 AUDIO
    TITLE "P1Q_t_1139-1148_39"
    INDEX 01 01:04:22
  TRACK 40 AUDIO
    TITLE "P1Q_t_1139-1148_40"
    INDEX 01 01:07:03
  TRACK 41 AUDIO
    TITLE "P1Q_t_1139-1148_41"
    INDEX 01 01:07:22
  TRACK 42 AUDIO
    TITLE "P1Q_t_1139-1148_42"
    INDEX 01 01:11:22
  TRACK 43 AUDIO
    TITLE "P1Q_t_1139-1148_43"
    INDEX 01 01:11:69
  TRACK 44 AUDIO
    TITLE "P1Q_t_1139-1148_44"
    INDEX 01 01:13:07
  TRACK 45 AUDIO
    TITLE "P1Q_t_1139-1148_45"
    INDEX 01 01:13:29
  TRACK 46 AUDIO
    TITLE "P1Q_t_1139-1148_46"
    INDEX 01 01:14:36
  TRACK 47 AUDIO
    TITLE "P1Q_t_1139-1148_47"
    INDEX 01 01:14:56
  TRACK 48 AUDIO
    TITLE "P1Q_t_1139-1148_48"
    INDEX 01 01:18:48
  TRACK 49 AUDIO
    TITLE "P1Q_t_1139-1148_49"
    INDEX 01 01:19:18
  TRACK 50 AUDIO
    TITLE "P1Q_t_1139-1148_50"
    INDEX 01 01:20:25
  TRACK 51 AUDIO
    TITLE "P1Q_t_1139-1148_51"
    INDEX 01 01:20:45
  TRACK 52 AUDIO
    TITLE "P1Q_t_1139-1148_52"
    INDEX 01 01:22:61
  TRACK 53 AUDIO
    TITLE "P1Q_t_1139-1148_53"
    INDEX 01 01:23:06
  TRACK 54 AUDIO
    TITLE "P1Q_t_1139-1148_54"
    INDEX 01 01:27:43
  TRACK 55 AUDIO
    TITLE "P1Q_t_1139-1148_55"
    INDEX 01 01:28:13
  TRACK 56 AUDIO
    TITLE "P1Q_t_1139-1148_56"
    INDEX 01 01:29:18
  TRACK 57 AUDIO
    TITLE "P1Q_t_1139-1148_57"
    INDEX 01 01:29:38
  TRACK 58 AUDIO
    TITLE "P1Q_t_1139-1148_58"
    INDEX 01 01:32:05
  TRACK 59 AUDIO
    TITLE "P1Q_t_1139-1148_59"
    INDEX 01 01:32:24
  TRACK 60 AUDIO
    TITLE "P1Q_t_1139-1148_60"
    INDEX 01 01:35:66
